<svg  xmlns="http://www.w3.org/2000/svg"  x="0px" y="0px"
	 viewBox="0 0 480 480" style="enable-background:new 0 0 480 480;" xml:space="preserve">
<path  fill="#FFAB02" d="M240,0C107.5,0,0,107.5,0,240s107.5,240,240,240c132.5-0.1,239.9-107.5,240-240C480,107.5,372.5,0,240,0z
	 M240,464C116.3,464,16,363.7,16,240S116.3,16,240,16c123.7,0.1,223.9,100.3,224,224C464,363.7,363.7,464,240,464z"/>
<path  fill="#FFAB02" d="M166.6,114.1l130.1,130.1L166.6,374.3c-3,3.1-3,8,0,11.1c3.1,3.2,8.1,3.3,11.3,0.2l135.8-135.8
	c1.5-1.5,2.3-3.5,2.3-5.7c0-2.1-0.8-4.2-2.3-5.7L177.9,102.7c-0.1-0.1-0.1-0.1-0.2-0.2c-3.2-3.1-8.2-3-11.3,0.2
	C163.3,105.9,163.4,111,166.6,114.1z"/>
</svg>
