
<svg xmlns="http://www.w3.org/2000/svg" viewBox="0 0 512 512" width="512" height="512">
    <path d="M265.22,304.77H247.95a6,6,0,0,0,0,12h17.27a6,6,0,0,0,0-12Z"/>
    <path d="M469.09,256.62H457.35a6,6,0,0,0,0,12h11.74a6,6,0,1,0,0-12Z"/>
    <path d="M469.09,274.54H457.35a6,6,0,0,0,0,12h11.74a6,6,0,0,0,0-12Z"/>
    <path d="M469.09,292.46H457.35a6,6,0,0,0,0,12h11.74a6,6,0,0,0,0-12Z"/>
    <path d="M430.39,256.62H419.65a6,6,0,0,0,0,12h10.74a6,6,0,0,0,0-12Z"/>
    <path d="M430.39,274.54H419.65a6,6,0,0,0,0,12h10.74a6,6,0,0,0,0-12Z"/>
    <path d="M430.39,292.46H419.65a6,6,0,0,0,0,12h10.74a6,6,0,0,0,0-12Z"/>
    <path d="M504.771,405.161a46.952,46.952,0,0,0-3.261-12.294,5.994,5.994,0,0,0-5.976-10.355,47.64,47.64,0,0,0-9-9.024,6,6,0,0,0-10.33-6.012,46.926,46.926,0,0,0-12.332-3.3,5.993,5.993,0,0,0-11.9-.392H441.855a5.992,5.992,0,0,0-11.85,0h-10.12a5.992,5.992,0,0,0-11.85,0h-10.12a5.993,5.993,0,0,0-11.165-2.018V336.71h4.89a6,6,0,0,0,6-6V326.8h91a20.023,20.023,0,0,0,20-20V249.44a20.023,20.023,0,0,0-20-20H478.08v-8.82a10.011,10.011,0,0,0-10-10h-2.67v-44.4a6,6,0,0,0-6-6h-5.77V139.77a2.923,2.923,0,0,1,2.92-2.92h3.35a6,6,0,0,0,0-12h-3.35a14.937,14.937,0,0,0-14.92,14.92v20.45h-4.8a6,6,0,0,0-6,6v44.4h-2.98a10.012,10.012,0,0,0-10,10v8.82H397.64V177.37a18.831,18.831,0,0,0-18.81-18.81H282.18a6,6,0,0,0-4.9,2.533l-3.259,4.608-41.571-22.743A102.689,102.689,0,0,0,185.068,130.4L85.48,66.745a15.884,15.884,0,0,0,.23-2.645,15.5,15.5,0,1,0-21.5,14.484V106.31H58.55a6,6,0,0,0-6,6v51.2L16.618,262.857a15.706,15.706,0,0,0,.522,31.393,15.253,15.253,0,0,0,4.185-.591l20.8,29.868L53.07,356.039,47.959,392.3a6,6,0,0,0,1.953,5.32l27.043,24.062a55.018,55.018,0,0,0,36.491,14.079,52.541,52.541,0,0,0,13.132-1.664c20.508-5.287,35.569-22.108,43.553-48.644A144.654,144.654,0,0,0,176,347.85a6,6,0,0,0-9.234-5.054L144.478,357.06l-38.1-8.08-2.523-22.839h-.006a6,6,0,0,0-1.642-3.509L87.119,307.006a23.85,23.85,0,0,0-2.58-2.3l9.895-121.348,13.364-9.583,76.039,6.709,49.7,50.36a129.41,129.41,0,0,0-4.669,15.389c-.754,3.15-1.4,6.421-1.905,9.724a168.989,168.989,0,0,0-1.97,25.674v49.08a6,6,0,0,0,6,6H286.3v23.643a5.988,5.988,0,0,0-10.074,3.427H266.105a5.992,5.992,0,0,0-11.85,0h-11.6a5.994,5.994,0,0,0-11.9.374,46.688,46.688,0,0,0-12.361,3.281,6,6,0,0,0-10.331,6,47.285,47.285,0,0,0-9.043,9.039,6,6,0,0,0-6,10.326,46.659,46.659,0,0,0-3.29,12.367,6,6,0,0,0,.024,11.947,46.949,46.949,0,0,0,3.322,12.329,5.989,5.989,0,0,0,6.026,10.315,47.671,47.671,0,0,0,9.021,8.978,5.989,5.989,0,0,0,10.361,5.962,46.875,46.875,0,0,0,12.266,3.245,5.994,5.994,0,0,0,11.936.377h11.543a6,6,0,0,0,11.906,0H276.2a6,6,0,0,0,11.907,0h10.053a6,6,0,0,0,11.907,0h10.063a6,6,0,0,0,11.906,0H342.1a6,6,0,0,0,11.906,0h10.063a6,6,0,0,0,11.907,0h10.064a6,6,0,0,0,11.906,0h10.064a6,6,0,0,0,11.906,0h10.064a6,6,0,0,0,11.906,0h10.064a5.994,5.994,0,0,0,11.937-.392,46.728,46.728,0,0,0,12.236-3.27,5.989,5.989,0,0,0,10.342-6.014,47.2,47.2,0,0,0,8.956-8.941,5.989,5.989,0,0,0,6.031-10.329,46.7,46.7,0,0,0,3.3-12.254,5.992,5.992,0,0,0,.021-11.959ZM442.84,172.22h10.57v38.4H442.84Zm-12.98,50.4h36.22v6.82H429.86Zm-32.22,18.82h91a8.009,8.009,0,0,1,8,8V306.8a8.009,8.009,0,0,1-8,8h-91ZM19.34,281.417a3.367,3.367,0,0,1-2.2.833,3.716,3.716,0,0,1,0-7.42,3.266,3.266,0,0,1,1.22.236l.014.006a3.723,3.723,0,0,1,2.266,3.468A3.788,3.788,0,0,1,19.34,281.417Zm33.21,25.889-4.183,4.182L30.7,286.114a15.823,15.823,0,0,0-2.868-18.965L52.55,198.792ZM342.26,170.56h36.57a6.818,6.818,0,0,1,6.81,6.81v84.89H342.26Zm0,103.7h43.38v12.98H342.26Zm-56.977-103.7H330.26v91.7H290.811l-14-18.279a6,6,0,0,0-4.764-2.351h-29.5c1.026-3.357,2.192-6.7,3.526-9.992a126.331,126.331,0,0,1,13.891-25.293ZM76.21,78.591a15.215,15.215,0,0,0,2.938-1.651l83.593,53.43H108.71L87.158,108.134a6,6,0,0,0-4.308-1.824H76.21Zm-6-18.191a3.608,3.608,0,0,1,3.5,3.7,3.908,3.908,0,0,1-.548,2.011,3.473,3.473,0,0,1-2.952,1.7,3.711,3.711,0,0,1,0-7.41ZM88.825,326.05l-12.053,8.934a6,6,0,1,0,7.146,9.641l9.154-6.786,1.854,16.77a6,6,0,0,0,4.719,5.211l44.75,9.49a6.006,6.006,0,0,0,4.479-.816l14.319-9.164c-2.17,18.98-10.169,55.56-39.612,63.15a42.348,42.348,0,0,1-38.652-9.762L60.29,390.794l4.511-32,4.864-3.605a6,6,0,0,0-7.146-9.641l-.254.188-7.852-23.325,8.035-7.958a11.737,11.737,0,0,1,13.01-1.394,12.009,12.009,0,0,1,3.025,2.277ZM85.183,175.224a6.006,6.006,0,0,0-2.484,4.388L72.891,299.891a23.649,23.649,0,0,0-8.341.455V118.31H80.31L92,130.37H87.81a20.78,20.78,0,0,0-1.967,41.466l3.618.32Zm35.557-12.355-33.786-2.981a8.78,8.78,0,0,1,.856-17.518h32.93Zm70.09,7.617a6,6,0,0,0-3.743-1.762l-54.347-4.8V142.37h50.53a90.659,90.659,0,0,1,43.42,11.114l40.356,22.079L250.17,199.417a140.051,140.051,0,0,0-11.539,19.507ZM236.99,324.71V299.24h10.677a6,6,0,1,0,0-12H236.99v-5.61a156.921,156.921,0,0,1,1.829-23.844c.216-1.395.462-2.781.728-4.156h29.541l14,18.278a6,6,0,0,0,4.764,2.352h42.41v12.98H267.851a6,6,0,0,0,0,12H385.64v25.47Zm137.76,12V361a5.99,5.99,0,0,0-10.656,2.782H353.975a5.992,5.992,0,0,0-11.85,0h-10.12a5.992,5.992,0,0,0-11.85,0h-10.12a5.991,5.991,0,0,0-11.735-.571v-26.5Zm108.038,99.248a35.008,35.008,0,0,1-24.9,10.362H236.61a35.27,35.27,0,0,1,0-70.54H457.89a35.225,35.225,0,0,1,24.9,60.178Z"/><path d="M262.712,405.6q-.267-1.224-.644-2.4a6,6,0,0,0-5.556-9.6q-.831-.913-1.746-1.746a6,6,0,0,0-9.6-5.557q-1.178-.376-2.4-.642a6,6,0,0,0-11.09,0q-1.222.266-2.4.642a6,6,0,0,0-9.6,5.556q-.914.832-1.746,1.747a6,6,0,0,0-5.557,9.6q-.376,1.177-.642,2.4a6,6,0,0,0,0,11.09q.266,1.223.642,2.4a6,6,0,0,0,5.558,9.6q.829.913,1.745,1.745a6,6,0,0,0,9.6,5.556q1.177.378,2.4.643a6,6,0,0,0,11.09,0q1.223-.265,2.4-.643a6,6,0,0,0,9.6-5.556q.914-.831,1.745-1.745a6,6,0,0,0,5.557-9.6q.378-1.179.644-2.405a6,6,0,0,0,0-11.082ZM237.22,425.23a14.09,14.09,0,1,1,14.09-14.09A14.106,14.106,0,0,1,237.22,425.23Z"/><path d="M478,393.6q-.833-.915-1.746-1.748a6,6,0,0,0-9.6-5.556c-.784-.251-1.586-.465-2.4-.642a6,6,0,0,0-11.09,0q-1.221.266-2.4.642a6,6,0,0,0-9.6,5.557q-.912.831-1.746,1.746a6,6,0,0,0-5.557,9.6q-.376,1.177-.642,2.4a6,6,0,0,0,0,11.09q.267,1.223.642,2.4a6,6,0,0,0,5.558,9.6q.831.913,1.745,1.745a6,6,0,0,0,9.6,5.556q1.178.378,2.4.643a6,6,0,0,0,11.09,0q1.222-.265,2.4-.643a6,6,0,0,0,9.6-5.556q.912-.831,1.745-1.745a6,6,0,0,0,5.558-9.6q.376-1.179.642-2.4a6,6,0,0,0,0-11.09q-.267-1.223-.642-2.4A6,6,0,0,0,478,393.6ZM458.71,425.23a14.09,14.09,0,1,1,14.09-14.09A14.106,14.106,0,0,1,458.71,425.23Z"/><path d="M336.541,405.6q-.267-1.223-.643-2.4a6,6,0,0,0-5.556-9.6q-.831-.915-1.746-1.747a6,6,0,0,0-9.6-5.557q-1.177-.376-2.4-.642a6,6,0,0,0-11.09,0q-1.222.266-2.4.642a6,6,0,0,0-9.6,5.556c-.608.555-1.192,1.138-1.746,1.747a6,6,0,0,0-5.557,9.6q-.377,1.177-.642,2.4a6,6,0,0,0,0,11.09q.265,1.223.642,2.4a6,6,0,0,0,5.558,9.6c.553.609,1.137,1.191,1.745,1.745a6,6,0,0,0,9.6,5.556q1.177.378,2.4.643a6,6,0,0,0,11.09,0q1.222-.265,2.4-.643a6,6,0,0,0,9.6-5.556q.913-.831,1.745-1.745a6,6,0,0,0,5.557-9.6q.376-1.178.643-2.4a6,6,0,0,0,0-11.09ZM311.05,425.23a14.09,14.09,0,1,1,14.09-14.09A14.106,14.106,0,0,1,311.05,425.23Z"/><path d="M410.371,405.6q-.267-1.223-.642-2.4a6,6,0,0,0-5.557-9.6q-.831-.915-1.746-1.747a6,6,0,0,0-9.6-5.557q-1.178-.376-2.4-.642a6,6,0,0,0-11.09,0q-1.221.266-2.4.642a6,6,0,0,0-9.6,5.556q-.912.832-1.746,1.747a6,6,0,0,0-5.557,9.6q-.377,1.177-.642,2.4a6,6,0,0,0,0,11.09q.265,1.223.642,2.4a6,6,0,0,0,5.558,9.6q.831.913,1.745,1.745a6,6,0,0,0,9.6,5.556q1.178.378,2.4.643a6,6,0,0,0,11.09,0q1.223-.265,2.4-.643a6,6,0,0,0,9.6-5.556q.914-.831,1.745-1.745a6,6,0,0,0,5.558-9.6q.377-1.178.642-2.4a6,6,0,0,0,0-11.09ZM384.88,425.23a14.09,14.09,0,1,1,14.09-14.09A14.106,14.106,0,0,1,384.88,425.23Z"/>
</svg>
