<svg  xmlns="http://www.w3.org/2000/svg"  x="0px" y="0px"
	 viewBox="0 0 512 512" style="enable-background:new 0 0 512 512; fill: #ffab02;" xml:space="preserve">

		<path d="M437.02,74.98C388.667,26.628,324.381,0,256,0C187.62,0,123.333,26.628,74.981,74.98C26.628,123.333,0,187.619,0,256
			s26.628,132.667,74.981,181.02C123.333,485.372,187.62,512,256,512c68.381,0,132.667-26.628,181.02-74.98S512,324.381,512,256
			S485.372,123.333,437.02,74.98z M256,489.739C127.116,489.739,22.261,384.884,22.261,256S127.116,22.261,256,22.261
			S489.739,127.116,489.739,256S384.884,489.739,256,489.739z"/>

		<path d="M256,44.522C139.391,44.522,44.522,139.39,44.522,256S139.391,467.478,256,467.478
			c116.61,0,211.478-94.868,211.478-211.478S372.61,44.522,256,44.522z M256,445.217c-104.334,0-189.217-84.883-189.217-189.217
			S151.666,66.783,256,66.783S445.217,151.666,445.217,256S360.334,445.217,256,445.217z"/>


		<path d="M149.26,353.691c-19.751-21.565-32.368-48.193-36.49-77.003c-0.87-6.086-6.514-10.313-12.594-9.442
			c-6.085,0.87-10.312,6.51-9.442,12.594c4.758,33.264,19.319,64,42.109,88.885c2.196,2.396,5.198,3.613,8.212,3.613
			c2.685,0,5.378-0.965,7.513-2.922C153.101,365.265,153.412,358.224,149.26,353.691z"/>

		<path d="M173.4,374.82c-5.014-3.557-11.962-2.379-15.519,2.636c-3.557,5.013-2.378,11.961,2.636,15.518
			c0.046,0.031,0.142,0.099,0.187,0.13c1.935,1.33,4.147,1.97,6.337,1.97c3.545,0,7.03-1.675,9.183-4.806
			C179.706,385.202,178.465,378.302,173.4,374.82z"/>
		<path d="M306.087,339.108l-16.696-0.001V225.391c0-16.877-13.732-30.609-30.609-30.609h-52.87
			c-15.343,0-27.826,12.483-27.826,27.826s12.483,27.826,27.826,27.826h16.696v114.087c0,16.877,13.73,30.609,30.609,30.609h25.043
			c0.991,0,1.95-0.129,2.863-0.372h24.963c15.343,0,27.826-12.483,27.826-27.826C333.913,351.59,321.43,339.108,306.087,339.108z
			 M306.087,372.498h-27.826c-0.991,0-1.95,0.129-2.863,0.372h-22.181c-4.604,0-8.348-3.744-8.348-8.348V239.304
			c0-6.146-4.983-11.13-11.13-11.13h-27.826c-3.069,0-5.565-2.497-5.565-5.565s2.497-5.565,5.565-5.565h52.87
			c4.604,0,8.348,3.744,8.348,8.348v124.846c0,6.146,4.983,11.13,11.13,11.13l27.826,0.001c3.069,0,5.565,2.497,5.565,5.565
			S309.156,372.498,306.087,372.498z"/>
		<path d="M255.629,116.87c-18.514,0-33.577,15.063-33.577,33.577c0,18.514,15.063,33.576,33.577,33.576
			c18.514,0,33.577-15.062,33.577-33.576C289.207,131.932,274.144,116.87,255.629,116.87z M255.629,161.762
			c-6.24,0-11.316-5.077-11.316-11.315c0-6.24,5.077-11.316,11.316-11.316c6.24,0,11.316,5.077,11.316,11.316
			C266.946,156.685,261.869,161.762,255.629,161.762z"/>

</svg>
