<svg
	 xmlns="http://www.w3.org/2000/svg" xmlns:xlink="http://www.w3.org/1999/xlink" x="0px" y="0px" width="25px" height="25px"
	 viewBox="0 0 25 25" style="enable-background:new 0 0 25 25;" xml:space="preserve">

<path d="M12.5,25C5.6,25,0,19.4,0,12.5S5.6,0,12.5,0S25,5.6,25,12.5S19.4,25,12.5,25z M19.6,11V8.1
	c0-1.5-1.2-2.7-2.7-2.7H8.1c-1.5,0-2.7,1.2-2.7,2.7V11v5.8c0,1.5,1.2,2.7,2.7,2.7h8.7c1.5,0,2.7-1.2,2.7-2.7V11z M16.9,18.2H8.1
	c-0.8,0-1.4-0.6-1.4-1.4V11h2.1c-0.2,0.5-0.3,0.9-0.3,1.5c0,2.1,1.7,3.9,3.9,3.9c2.1,0,3.9-1.7,3.9-3.9c0-0.5-0.1-1-0.3-1.5h2.1v5.8
	C18.2,17.6,17.6,18.2,16.9,18.2z M15.6,7l2.1,0L18,7v0.3v2.1l-2.4,0L15.6,7z M12.5,15c-1.4,0-2.5-1.1-2.5-2.5c0-0.5,0.2-1,0.5-1.5
	c0.5-0.6,1.2-1,2-1c0.8,0,1.6,0.4,2,1c0.3,0.4,0.5,0.9,0.5,1.5C15,13.9,13.9,15,12.5,15z"/>
</svg>
