
<svg
	 xmlns="http://www.w3.org/2000/svg" x="0px" y="0px" width="17px" height="17px"
	 viewBox="0 0 17 17" style="enable-background:new 0 0 17 17;" xml:space="preserve">

<path d="M13.4,10.5c-0.3-0.4-0.8-0.6-1.2-0.6c-0.4,0-0.9,0.2-1.2,0.6l-1.1,1.1c-0.1-0.1-0.2-0.1-0.3-0.1c-0.1-0.1-0.3-0.1-0.4-0.2
	c-1.1-0.7-2-1.6-3-2.7c-0.4-0.6-0.7-1-1-1.5c0.3-0.3,0.6-0.5,0.8-0.8C6.2,6.2,6.3,6.1,6.4,6c0.8-0.8,0.8-1.7,0-2.5l-1-1
	C5.4,2.4,5.2,2.3,5.1,2.2C4.9,2,4.7,1.7,4.5,1.5C4.1,1.2,3.7,1,3.3,1S2.4,1.2,2,1.5c0,0,0,0,0,0L0.8,2.7C0.3,3.2,0.1,3.8,0,4.4
	c-0.1,1,0.2,2,0.5,2.7c0.6,1.6,1.4,3,2.7,4.6c1.6,1.9,3.5,3.4,5.6,4.4c0.8,0.4,1.9,0.9,3.2,0.9c0.1,0,0.2,0,0.2,0
	c0.8,0,1.5-0.3,2.1-0.9c0,0,0,0,0,0c0.2-0.2,0.4-0.4,0.6-0.6c0.2-0.1,0.3-0.3,0.5-0.5c0.4-0.4,0.5-0.8,0.5-1.2
	c0-0.4-0.2-0.9-0.6-1.2L13.4,10.5z M14.7,14.3C14.7,14.3,14.7,14.3,14.7,14.3c-0.1,0.2-0.3,0.3-0.4,0.4c-0.2,0.2-0.5,0.5-0.7,0.7
	c-0.4,0.4-0.8,0.6-1.3,0.6c-0.1,0-0.1,0-0.2,0C11,16,10,15.5,9.3,15.2c-2-1-3.8-2.4-5.3-4.1c-1.2-1.5-2-2.8-2.6-4.3
	C1.1,5.8,0.9,5.2,1,4.5c0-0.4,0.2-0.8,0.5-1.1l1.2-1.2C2.9,2,3.1,2,3.3,2c0.2,0,0.4,0.1,0.5,0.3c0,0,0,0,0,0C4,2.4,4.2,2.6,4.4,2.9
	C4.6,3,4.7,3.1,4.8,3.2l1,1c0.4,0.4,0.4,0.7,0,1.1C5.7,5.4,5.6,5.5,5.5,5.6C5.2,5.9,4.9,6.2,4.6,6.5c0,0,0,0,0,0
	C4.2,6.8,4.3,7.1,4.3,7.3c0,0,0,0,0,0C4.6,8,5,8.5,5.5,9.2l0,0c1,1.2,2,2.2,3.2,2.9c0.1,0.1,0.3,0.2,0.4,0.2
	c0.1,0.1,0.3,0.1,0.4,0.2c0,0,0,0,0,0c0.1,0.1,0.2,0.1,0.4,0.1c0.3,0,0.5-0.2,0.5-0.2l1.2-1.2c0.1-0.1,0.3-0.3,0.5-0.3
	c0.2,0,0.4,0.1,0.5,0.3c0,0,0,0,0,0l2,2C15.1,13.6,15.1,13.9,14.7,14.3z"/>
<path d="M9.2,4c0.9,0.2,1.8,0.6,2.5,1.3c0.7,0.7,1.1,1.5,1.3,2.5c0,0.2,0.2,0.4,0.5,0.4c0,0,0.1,0,0.1,0c0.3,0,0.4-0.3,0.4-0.6
	c-0.2-1.1-0.7-2.2-1.6-3s-1.9-1.4-3-1.6C9.1,3,8.8,3.2,8.8,3.5S8.9,4,9.2,4z"/>
<path d="M17,7.5c-0.3-1.9-1.2-3.6-2.6-4.9S11.4,0.3,9.5,0C9.2,0,9,0.1,8.9,0.4c0,0.3,0.1,0.5,0.4,0.6C11,1.2,12.5,2,13.7,3.2
	C15,4.5,15.7,6,16,7.7c0,0.2,0.2,0.4,0.5,0.4c0,0,0.1,0,0.1,0C16.8,8,17,7.8,17,7.5z"/>
</svg>
