<svg xmlns="http://www.w3.org/2000/svg" x="0px" y="0px"
	 viewBox="0 0 480 480" style="enable-background:new 0 0 480 480;" xml:space="preserve">

		<path d="M232,348H56c-30.911,0.04-55.96,25.089-56,56c0.04,30.911,25.089,55.96,56,56h176c30.928,0,56-25.072,56-56
			C288,373.072,262.928,348,232,348z M232,444H56c-22.08-0.026-39.974-17.92-40-40c0.026-22.08,17.92-39.974,40-40h176
			c22.091,0,40,17.909,40,40C272,426.092,254.091,444,232,444z"/>

		<path d="M208,380c-13.255,0-24,10.745-24,24s10.745,24,24,24s24-10.745,24-24S221.255,380,208,380z M208,412c-4.418,0-8-3.582-8-8
			s3.582-8,8-8s8,3.582,8,8S212.418,412,208,412z"/>

		<path d="M144,380c-13.255,0-24,10.745-24,24s10.745,24,24,24s24-10.745,24-24S157.255,380,144,380z M144,412c-4.418,0-8-3.582-8-8
			s3.582-8,8-8s8,3.582,8,8S148.418,412,144,412z"/>

		<path d="M80,380c-13.255,0-24,10.745-24,24s10.745,24,24,24s24-10.745,24-24S93.255,380,80,380z M80,412c-4.418,0-8-3.582-8-8
			s3.582-8,8-8s8,3.582,8,8S84.418,412,80,412z"/>

		<path d="M480,316h-16V130.984l7.912-53.816c0.429-2.902-0.765-5.807-3.112-7.568l-64-48c-3.535-2.651-8.549-1.935-11.2,1.6
			c-1.039,1.385-1.6,3.069-1.6,4.8v8.84L264,51.064V44c0-4.418-3.582-8-8-8h-32c-4.418,0-8,3.582-8,8v24h-16
			c-2.736-0.001-5.283,1.396-6.752,3.704L139.608,156H112c-4.418,0-8,3.582-8,8v72H16c-4.418,0-8,3.582-8,8v80c0,4.418,3.582,8,8,8
			h208c4.418,0,8-3.582,8-8v-80c-0.002-0.614-0.072-1.226-0.208-1.824l-14.528-62.264l27.632-48.368L392,116.84V307.4
			l-55.144,108.992c-1.993,3.943-0.411,8.756,3.532,10.748c1.12,0.566,2.357,0.86,3.612,0.86h55.336
			c35.697-0.04,64.624-28.968,64.664-64.664c-0.002-10.997-2.887-21.802-8.368-31.336H480V316z M264,67.2l128-14.264V68H264V67.2z
			 M232,52h16v16h-16V52z M120,172h78.984l14.936,64H120V172z M216,316H24v-16h192V316z M216,284H24v-32h192V284z M239.2,116.08
			c-2.574,0.261-4.863,1.751-6.144,4l-22.008,38.52c-1.462-1.62-3.53-2.562-5.712-2.6h-46.76l45.816-72H392v16.8L239.2,116.08z
			 M399.336,412h-42.32l48.448-95.76c24.146,2.491,42.508,22.821,42.536,47.096C447.969,390.2,426.2,411.969,399.336,412z M448,316
			h-5.4c-1.658-1.472-3.391-2.858-5.192-4.152L448,239.792V316z M448.856,124H448v5.808L422.4,303.92
			c-4.646-1.718-9.48-2.878-14.4-3.456V44l47.392,35.544L448.856,124z"/>

</svg>
